<svg width="134" height="50" viewBox="0 0 134 50" fill="none" xmlns="http://www.w3.org/2000/svg">
<path d="M26.528 23.672L25.936 26.44H28.048V28.04H25.6L24.96 31H23.216L23.856 28.04H20.72L20.08 31H18.336L18.976 28.04H16.496V26.44H19.312L19.904 23.672H17.44V22.072H20.24L20.864 19.16H22.608L21.984 22.072H25.12L25.744 19.16H27.488L26.864 22.072H28.992V23.672H26.528ZM24.784 23.672H21.648L21.056 26.44H24.192L24.784 23.672ZM30.8811 22.216C30.9451 21.224 31.3238 20.4507 32.0171 19.896C32.7211 19.3413 33.6171 19.064 34.7051 19.064C35.4518 19.064 36.0971 19.1973 36.6411 19.464C37.1851 19.7307 37.5958 20.0933 37.8731 20.552C38.1505 21.0107 38.2891 21.528 38.2891 22.104C38.2891 22.7653 38.1131 23.3307 37.7611 23.8C37.4091 24.2693 36.9878 24.584 36.4971 24.744V24.808C37.1265 25 37.6171 25.352 37.9691 25.864C38.3211 26.3653 38.4971 27.0107 38.4971 27.8C38.4971 28.4293 38.3531 28.9893 38.0651 29.48C37.7771 29.9707 37.3505 30.36 36.7851 30.648C36.2198 30.9253 35.5425 31.064 34.7531 31.064C33.6011 31.064 32.6518 30.7707 31.9051 30.184C31.1691 29.5867 30.7745 28.7333 30.7211 27.624H32.4811C32.5238 28.1893 32.7425 28.6533 33.1371 29.016C33.5318 29.368 34.0651 29.544 34.7371 29.544C35.3878 29.544 35.8891 29.368 36.2411 29.016C36.5931 28.6533 36.7691 28.1893 36.7691 27.624C36.7691 26.8773 36.5291 26.3493 36.0491 26.04C35.5798 25.72 34.8545 25.56 33.8731 25.56H33.4571V24.056H33.8891C34.7531 24.0453 35.4091 23.9013 35.8571 23.624C36.3158 23.3467 36.5451 22.9093 36.5451 22.312C36.5451 21.8 36.3798 21.3947 36.0491 21.096C35.7185 20.7867 35.2491 20.632 34.6411 20.632C34.0438 20.632 33.5798 20.7867 33.2491 21.096C32.9185 21.3947 32.7211 21.768 32.6571 22.216H30.8811ZM41.4211 28.52C42.4451 27.6347 43.2505 26.9093 43.8371 26.344C44.4345 25.768 44.9305 25.1707 45.3251 24.552C45.7198 23.9333 45.9171 23.3147 45.9171 22.696C45.9171 22.056 45.7625 21.5547 45.4531 21.192C45.1545 20.8293 44.6798 20.648 44.0291 20.648C43.3998 20.648 42.9091 20.8507 42.5571 21.256C42.2158 21.6507 42.0345 22.184 42.0131 22.856H40.2531C40.2851 21.64 40.6478 20.712 41.3411 20.072C42.0451 19.4213 42.9358 19.096 44.0131 19.096C45.1758 19.096 46.0825 19.416 46.7331 20.056C47.3945 20.696 47.7251 21.5493 47.7251 22.616C47.7251 23.384 47.5278 24.1253 47.1331 24.84C46.7491 25.544 46.2851 26.1787 45.7411 26.744C45.2078 27.2987 44.5251 27.944 43.6931 28.68L42.9731 29.32H48.0451V30.84H40.2691V29.512L41.4211 28.52ZM49.6155 22.216C49.6795 21.224 50.0582 20.4507 50.7515 19.896C51.4555 19.3413 52.3515 19.064 53.4395 19.064C54.1862 19.064 54.8315 19.1973 55.3755 19.464C55.9195 19.7307 56.3302 20.0933 56.6075 20.552C56.8848 21.0107 57.0235 21.528 57.0235 22.104C57.0235 22.7653 56.8475 23.3307 56.4955 23.8C56.1435 24.2693 55.7222 24.584 55.2315 24.744V24.808C55.8608 25 56.3515 25.352 56.7035 25.864C57.0555 26.3653 57.2315 27.0107 57.2315 27.8C57.2315 28.4293 57.0875 28.9893 56.7995 29.48C56.5115 29.9707 56.0848 30.36 55.5195 30.648C54.9542 30.9253 54.2768 31.064 53.4875 31.064C52.3355 31.064 51.3862 30.7707 50.6395 30.184C49.9035 29.5867 49.5088 28.7333 49.4555 27.624H51.2155C51.2582 28.1893 51.4768 28.6533 51.8715 29.016C52.2662 29.368 52.7995 29.544 53.4715 29.544C54.1222 29.544 54.6235 29.368 54.9755 29.016C55.3275 28.6533 55.5035 28.1893 55.5035 27.624C55.5035 26.8773 55.2635 26.3493 54.7835 26.04C54.3142 25.72 53.5888 25.56 52.6075 25.56H52.1915V24.056H52.6235C53.4875 24.0453 54.1435 23.9013 54.5915 23.624C55.0502 23.3467 55.2795 22.9093 55.2795 22.312C55.2795 21.8 55.1142 21.3947 54.7835 21.096C54.4528 20.7867 53.9835 20.632 53.3755 20.632C52.7782 20.632 52.3142 20.7867 51.9835 21.096C51.6528 21.3947 51.4555 21.768 51.3915 22.216H49.6155ZM60.1555 28.52C61.1795 27.6347 61.9848 26.9093 62.5715 26.344C63.1688 25.768 63.6648 25.1707 64.0595 24.552C64.4542 23.9333 64.6515 23.3147 64.6515 22.696C64.6515 22.056 64.4968 21.5547 64.1875 21.192C63.8888 20.8293 63.4142 20.648 62.7635 20.648C62.1342 20.648 61.6435 20.8507 61.2915 21.256C60.9502 21.6507 60.7688 22.184 60.7475 22.856H58.9875C59.0195 21.64 59.3822 20.712 60.0755 20.072C60.7795 19.4213 61.6702 19.096 62.7475 19.096C63.9102 19.096 64.8168 19.416 65.4675 20.056C66.1288 20.696 66.4595 21.5493 66.4595 22.616C66.4595 23.384 66.2622 24.1253 65.8675 24.84C65.4835 25.544 65.0195 26.1787 64.4755 26.744C63.9422 27.2987 63.2595 27.944 62.4275 28.68L61.7075 29.32H66.7795V30.84H59.0035V29.512L60.1555 28.52ZM68.1579 28.568V27.192L73.5339 19.48H75.7419V26.984H77.2299V28.568H75.7419V31H73.9499V28.568H68.1579ZM74.0299 21.336L70.2539 26.984H74.0299V21.336ZM78.7093 22.216C78.7733 21.224 79.1519 20.4507 79.8453 19.896C80.5493 19.3413 81.4453 19.064 82.5333 19.064C83.2799 19.064 83.9253 19.1973 84.4693 19.464C85.0133 19.7307 85.4239 20.0933 85.7013 20.552C85.9786 21.0107 86.1173 21.528 86.1173 22.104C86.1173 22.7653 85.9413 23.3307 85.5893 23.8C85.2373 24.2693 84.8159 24.584 84.3253 24.744V24.808C84.9546 25 85.4453 25.352 85.7973 25.864C86.1493 26.3653 86.3253 27.0107 86.3253 27.8C86.3253 28.4293 86.1813 28.9893 85.8933 29.48C85.6053 29.9707 85.1786 30.36 84.6133 30.648C84.0479 30.9253 83.3706 31.064 82.5813 31.064C81.4293 31.064 80.4799 30.7707 79.7333 30.184C78.9973 29.5867 78.6026 28.7333 78.5493 27.624H80.3093C80.3519 28.1893 80.5706 28.6533 80.9653 29.016C81.3599 29.368 81.8933 29.544 82.5653 29.544C83.2159 29.544 83.7173 29.368 84.0693 29.016C84.4213 28.6533 84.5973 28.1893 84.5973 27.624C84.5973 26.8773 84.3573 26.3493 83.8773 26.04C83.4079 25.72 82.6826 25.56 81.7013 25.56H81.2853V24.056H81.7173C82.5813 24.0453 83.2373 23.9013 83.6853 23.624C84.1439 23.3467 84.3733 22.9093 84.3733 22.312C84.3733 21.8 84.2079 21.3947 83.8773 21.096C83.5466 20.7867 83.0773 20.632 82.4693 20.632C81.8719 20.632 81.4079 20.7867 81.0773 21.096C80.7466 21.3947 80.5493 21.768 80.4853 22.216H78.7093Z" fill="#3485FF"/>
<path d="M114.667 22.5H107.167C106.246 22.5 105.5 23.2462 105.5 24.1667V31.6667C105.5 32.5871 106.246 33.3333 107.167 33.3333H114.667C115.587 33.3333 116.333 32.5871 116.333 31.6667V24.1667C116.333 23.2462 115.587 22.5 114.667 22.5Z" stroke="#3485FF" stroke-width="2" stroke-linecap="round" stroke-linejoin="round"/>
<path d="M102.167 27.5H101.333C100.891 27.5 100.467 27.3244 100.155 27.0118C99.8423 26.6993 99.6667 26.2754 99.6667 25.8333V18.3333C99.6667 17.8913 99.8423 17.4674 100.155 17.1548C100.467 16.8423 100.891 16.6667 101.333 16.6667H108.833C109.275 16.6667 109.699 16.8423 110.012 17.1548C110.324 17.4674 110.5 17.8913 110.5 18.3333V19.1667" stroke="#3485FF" stroke-width="2" stroke-linecap="round" stroke-linejoin="round"/>
<path d="M8 2H126V-2H8V2ZM132 8V42H136V8H132ZM126 48H8V52H126V48ZM2 42V8H-2V42H2ZM8 48C4.68629 48 2 45.3137 2 42H-2C-2 47.5228 2.47715 52 8 52V48ZM132 42C132 45.3137 129.314 48 126 48V52C131.523 52 136 47.5228 136 42H132ZM126 2C129.314 2 132 4.68629 132 8H136C136 2.47715 131.523 -2 126 -2V2ZM8 -2C2.47715 -2 -2 2.47715 -2 8H2C2 4.68629 4.68629 2 8 2V-2Z" fill="#3485FF"/>
</svg>
