<svg width="162" height="24" viewBox="0 0 162 24" fill="none" xmlns="http://www.w3.org/2000/svg">
<path d="M20 6L9 17L4 12" stroke="#3485FF" stroke-width="2" stroke-linecap="round" stroke-linejoin="round"/>
<path d="M38.625 18L34.75 7.875H34.6875C34.7604 8.67708 34.7969 9.63021 34.7969 10.7344V18H33.5703V6.57812H35.5703L39.1875 16H39.25L42.8984 6.57812H44.8828V18H43.5547V10.6406C43.5547 9.79688 43.5911 8.88021 43.6641 7.89062H43.6016L39.6953 18H38.625ZM53.0938 18L52.8359 16.7812H52.7734C52.3464 17.3177 51.9193 17.6823 51.4922 17.875C51.0703 18.0625 50.5417 18.1562 49.9062 18.1562C49.0573 18.1562 48.3906 17.9375 47.9062 17.5C47.4271 17.0625 47.1875 16.4401 47.1875 15.6328C47.1875 13.9036 48.5703 12.9974 51.3359 12.9141L52.7891 12.8672V12.3359C52.7891 11.6641 52.6432 11.1693 52.3516 10.8516C52.0651 10.5286 51.6042 10.3672 50.9688 10.3672C50.2552 10.3672 49.4479 10.5859 48.5469 11.0234L48.1484 10.0312C48.5703 9.80208 49.0312 9.6224 49.5312 9.49219C50.0365 9.36198 50.5417 9.29688 51.0469 9.29688C52.0677 9.29688 52.8229 9.52344 53.3125 9.97656C53.8073 10.4297 54.0547 11.1562 54.0547 12.1562V18H53.0938ZM50.1641 17.0859C50.9714 17.0859 51.6042 16.8646 52.0625 16.4219C52.526 15.9792 52.7578 15.3594 52.7578 14.5625V13.7891L51.4609 13.8438C50.4297 13.8802 49.6849 14.0417 49.2266 14.3281C48.7734 14.6094 48.5469 15.0495 48.5469 15.6484C48.5469 16.1172 48.6875 16.474 48.9688 16.7188C49.2552 16.9635 49.6536 17.0859 50.1641 17.0859ZM60.6406 9.28125C61.0208 9.28125 61.362 9.3125 61.6641 9.375L61.4844 10.5781C61.1302 10.5 60.8177 10.4609 60.5469 10.4609C59.8542 10.4609 59.2604 10.7422 58.7656 11.3047C58.276 11.8672 58.0312 12.5677 58.0312 13.4062V18H56.7344V9.4375H57.8047L57.9531 11.0234H58.0156C58.3333 10.4661 58.7161 10.0365 59.1641 9.73438C59.612 9.43229 60.1042 9.28125 60.6406 9.28125ZM66.6875 18.1562C65.4479 18.1562 64.487 17.776 63.8047 17.0156C63.1276 16.25 62.7891 15.1693 62.7891 13.7734C62.7891 12.3411 63.1328 11.2344 63.8203 10.4531C64.513 9.67188 65.4974 9.28125 66.7734 9.28125C67.1849 9.28125 67.5964 9.32552 68.0078 9.41406C68.4193 9.5026 68.7422 9.60677 68.9766 9.72656L68.5781 10.8281C68.2917 10.7135 67.9792 10.6198 67.6406 10.5469C67.3021 10.4688 67.0026 10.4297 66.7422 10.4297C65.0026 10.4297 64.1328 11.5391 64.1328 13.7578C64.1328 14.8099 64.3438 15.6172 64.7656 16.1797C65.1927 16.7422 65.8229 17.0234 66.6562 17.0234C67.3698 17.0234 68.1016 16.8698 68.8516 16.5625V17.7109C68.2786 18.0078 67.5573 18.1562 66.6875 18.1562ZM76.1562 18L75.8984 16.7812H75.8359C75.4089 17.3177 74.9818 17.6823 74.5547 17.875C74.1328 18.0625 73.6042 18.1562 72.9688 18.1562C72.1198 18.1562 71.4531 17.9375 70.9688 17.5C70.4896 17.0625 70.25 16.4401 70.25 15.6328C70.25 13.9036 71.6328 12.9974 74.3984 12.9141L75.8516 12.8672V12.3359C75.8516 11.6641 75.7057 11.1693 75.4141 10.8516C75.1276 10.5286 74.6667 10.3672 74.0312 10.3672C73.3177 10.3672 72.5104 10.5859 71.6094 11.0234L71.2109 10.0312C71.6328 9.80208 72.0938 9.6224 72.5938 9.49219C73.099 9.36198 73.6042 9.29688 74.1094 9.29688C75.1302 9.29688 75.8854 9.52344 76.375 9.97656C76.8698 10.4297 77.1172 11.1562 77.1172 12.1562V18H76.1562ZM73.2266 17.0859C74.0339 17.0859 74.6667 16.8646 75.125 16.4219C75.5885 15.9792 75.8203 15.3594 75.8203 14.5625V13.7891L74.5234 13.8438C73.4922 13.8802 72.7474 14.0417 72.2891 14.3281C71.8359 14.6094 71.6094 15.0495 71.6094 15.6484C71.6094 16.1172 71.75 16.474 72.0312 16.7188C72.3177 16.9635 72.7161 17.0859 73.2266 17.0859ZM83.7031 9.28125C84.0833 9.28125 84.4245 9.3125 84.7266 9.375L84.5469 10.5781C84.1927 10.5 83.8802 10.4609 83.6094 10.4609C82.9167 10.4609 82.3229 10.7422 81.8281 11.3047C81.3385 11.8672 81.0938 12.5677 81.0938 13.4062V18H79.7969V9.4375H80.8672L81.0156 11.0234H81.0781C81.3958 10.4661 81.7786 10.0365 82.2266 9.73438C82.6745 9.43229 83.1667 9.28125 83.7031 9.28125ZM93.9062 18.1562C92.6667 18.1562 91.7057 17.776 91.0234 17.0156C90.3464 16.25 90.0078 15.1693 90.0078 13.7734C90.0078 12.3411 90.3516 11.2344 91.0391 10.4531C91.7318 9.67188 92.7161 9.28125 93.9922 9.28125C94.4036 9.28125 94.8151 9.32552 95.2266 9.41406C95.638 9.5026 95.9609 9.60677 96.1953 9.72656L95.7969 10.8281C95.5104 10.7135 95.1979 10.6198 94.8594 10.5469C94.5208 10.4688 94.2214 10.4297 93.9609 10.4297C92.2214 10.4297 91.3516 11.5391 91.3516 13.7578C91.3516 14.8099 91.5625 15.6172 91.9844 16.1797C92.4115 16.7422 93.0417 17.0234 93.875 17.0234C94.5885 17.0234 95.3203 16.8698 96.0703 16.5625V17.7109C95.4974 18.0078 94.776 18.1562 93.9062 18.1562ZM105.5 13.7109C105.5 15.1068 105.148 16.1979 104.445 16.9844C103.742 17.7656 102.771 18.1562 101.531 18.1562C100.766 18.1562 100.086 17.9766 99.4922 17.6172C98.8984 17.2578 98.4401 16.7422 98.1172 16.0703C97.7943 15.3984 97.6328 14.612 97.6328 13.7109C97.6328 12.3151 97.9818 11.2292 98.6797 10.4531C99.3776 9.67188 100.346 9.28125 101.586 9.28125C102.784 9.28125 103.734 9.67969 104.438 10.4766C105.146 11.2734 105.5 12.3516 105.5 13.7109ZM98.9766 13.7109C98.9766 14.8047 99.1953 15.638 99.6328 16.2109C100.07 16.7839 100.714 17.0703 101.562 17.0703C102.411 17.0703 103.055 16.7865 103.492 16.2188C103.935 15.6458 104.156 14.8099 104.156 13.7109C104.156 12.6224 103.935 11.7969 103.492 11.2344C103.055 10.6667 102.406 10.3828 101.547 10.3828C100.698 10.3828 100.057 10.6615 99.625 11.2188C99.1927 11.776 98.9766 12.6068 98.9766 13.7109ZM118.695 18V12.4297C118.695 11.7474 118.549 11.237 118.258 10.8984C117.966 10.5547 117.513 10.3828 116.898 10.3828C116.091 10.3828 115.495 10.6146 115.109 11.0781C114.724 11.5417 114.531 12.2552 114.531 13.2188V18H113.234V12.4297C113.234 11.7474 113.089 11.237 112.797 10.8984C112.505 10.5547 112.049 10.3828 111.43 10.3828C110.617 10.3828 110.021 10.6276 109.641 11.1172C109.266 11.6016 109.078 12.3984 109.078 13.5078V18H107.781V9.4375H108.836L109.047 10.6094H109.109C109.354 10.1927 109.698 9.86719 110.141 9.63281C110.589 9.39844 111.089 9.28125 111.641 9.28125C112.979 9.28125 113.854 9.76562 114.266 10.7344H114.328C114.583 10.2865 114.953 9.93229 115.438 9.67188C115.922 9.41146 116.474 9.28125 117.094 9.28125C118.062 9.28125 118.786 9.53125 119.266 10.0312C119.75 10.526 119.992 11.3203 119.992 12.4141V18H118.695ZM130.062 13.7109C130.062 15.1068 129.711 16.1979 129.008 16.9844C128.305 17.7656 127.333 18.1562 126.094 18.1562C125.328 18.1562 124.648 17.9766 124.055 17.6172C123.461 17.2578 123.003 16.7422 122.68 16.0703C122.357 15.3984 122.195 14.612 122.195 13.7109C122.195 12.3151 122.544 11.2292 123.242 10.4531C123.94 9.67188 124.909 9.28125 126.148 9.28125C127.346 9.28125 128.297 9.67969 129 10.4766C129.708 11.2734 130.062 12.3516 130.062 13.7109ZM123.539 13.7109C123.539 14.8047 123.758 15.638 124.195 16.2109C124.633 16.7839 125.276 17.0703 126.125 17.0703C126.974 17.0703 127.617 16.7865 128.055 16.2188C128.497 15.6458 128.719 14.8099 128.719 13.7109C128.719 12.6224 128.497 11.7969 128.055 11.2344C127.617 10.6667 126.969 10.3828 126.109 10.3828C125.26 10.3828 124.62 10.6615 124.188 11.2188C123.755 11.776 123.539 12.6068 123.539 13.7109ZM137.797 18H136.5V5.84375H137.797V18ZM141.844 18H140.547V9.4375H141.844V18ZM140.438 7.11719C140.438 6.82031 140.51 6.60417 140.656 6.46875C140.802 6.32812 140.984 6.25781 141.203 6.25781C141.411 6.25781 141.591 6.32812 141.742 6.46875C141.893 6.60938 141.969 6.82552 141.969 7.11719C141.969 7.40885 141.893 7.6276 141.742 7.77344C141.591 7.91406 141.411 7.98438 141.203 7.98438C140.984 7.98438 140.802 7.91406 140.656 7.77344C140.51 7.6276 140.438 7.40885 140.438 7.11719ZM150.422 16.8516H150.352C149.753 17.7214 148.857 18.1562 147.664 18.1562C146.544 18.1562 145.672 17.7734 145.047 17.0078C144.427 16.2422 144.117 15.1536 144.117 13.7422C144.117 12.3307 144.43 11.2344 145.055 10.4531C145.68 9.67188 146.549 9.28125 147.664 9.28125C148.826 9.28125 149.716 9.70312 150.336 10.5469H150.438L150.383 9.92969L150.352 9.32812V5.84375H151.648V18H150.594L150.422 16.8516ZM147.828 17.0703C148.714 17.0703 149.354 16.8307 149.75 16.3516C150.151 15.8672 150.352 15.0885 150.352 14.0156V13.7422C150.352 12.5286 150.148 11.6641 149.742 11.1484C149.341 10.6276 148.698 10.3672 147.812 10.3672C147.052 10.3672 146.469 10.6641 146.062 11.2578C145.661 11.8464 145.461 12.6797 145.461 13.7578C145.461 14.8516 145.661 15.6771 146.062 16.2344C146.464 16.7917 147.052 17.0703 147.828 17.0703ZM159.672 18L159.414 16.7812H159.352C158.924 17.3177 158.497 17.6823 158.07 17.875C157.648 18.0625 157.12 18.1562 156.484 18.1562C155.635 18.1562 154.969 17.9375 154.484 17.5C154.005 17.0625 153.766 16.4401 153.766 15.6328C153.766 13.9036 155.148 12.9974 157.914 12.9141L159.367 12.8672V12.3359C159.367 11.6641 159.221 11.1693 158.93 10.8516C158.643 10.5286 158.182 10.3672 157.547 10.3672C156.833 10.3672 156.026 10.5859 155.125 11.0234L154.727 10.0312C155.148 9.80208 155.609 9.6224 156.109 9.49219C156.615 9.36198 157.12 9.29688 157.625 9.29688C158.646 9.29688 159.401 9.52344 159.891 9.97656C160.385 10.4297 160.633 11.1562 160.633 12.1562V18H159.672ZM156.742 17.0859C157.549 17.0859 158.182 16.8646 158.641 16.4219C159.104 15.9792 159.336 15.3594 159.336 14.5625V13.7891L158.039 13.8438C157.008 13.8802 156.263 14.0417 155.805 14.3281C155.352 14.6094 155.125 15.0495 155.125 15.6484C155.125 16.1172 155.266 16.474 155.547 16.7188C155.833 16.9635 156.232 17.0859 156.742 17.0859Z" fill="#4D5E77"/>
</svg>
